<svg width="15" height="15" viewBox="0 0 15 15" fill="none" xmlns="http://www.w3.org/2000/svg">
<g clip-path="url(#clip0_16_1513)">
<path d="M7.5 0C4.33875 0 0.9375 0.952969 0.9375 3.04688V11.9531C0.9375 14.0461 4.33875 15 7.5 15C10.6608 15 14.0625 14.0461 14.0625 11.9531V3.04688C14.0625 0.952969 10.6603 0 7.5 0ZM13.125 11.9531C13.125 13.1175 10.6064 14.0625 7.5 14.0625C4.39313 14.0625 1.875 13.1175 1.875 11.9531V10.2019C2.84344 11.1998 5.17969 11.7188 7.5 11.7188C9.82031 11.7188 12.1566 11.1998 13.125 10.2019V11.9531ZM13.125 9.14062H13.1231C13.1231 9.14531 13.125 9.15047 13.125 9.15516C13.125 10.3125 10.6064 11.25 7.5 11.25C4.39359 11.25 1.875 10.3125 1.875 9.15516C1.875 9.15047 1.87688 9.14531 1.87688 9.14062H1.875V7.38937C2.84344 8.38734 5.17969 8.90625 7.5 8.90625C9.82031 8.90625 12.1566 8.38734 13.125 7.38937V9.14062ZM13.125 6.32812H13.1231C13.1231 6.33281 13.125 6.33797 13.125 6.34266C13.125 7.5 10.6064 8.4375 7.5 8.4375C4.39359 8.4375 1.875 7.5 1.875 6.34266C1.875 6.33797 1.87688 6.33281 1.87688 6.32812H1.875V4.7175C3.10359 5.65359 5.35547 6.09375 7.5 6.09375C9.64453 6.09375 11.8964 5.65359 13.125 4.7175V6.32812ZM7.5 5.15625C4.39313 5.15625 1.875 4.21125 1.875 3.04688C1.875 1.88156 4.39313 0.9375 7.5 0.9375C10.6064 0.9375 13.125 1.88156 13.125 3.04688C13.125 4.21125 10.6064 5.15625 7.5 5.15625Z" fill="white"/>
<path d="M11.7188 12.6562C11.9776 12.6562 12.1875 12.4464 12.1875 12.1875C12.1875 11.9286 11.9776 11.7188 11.7188 11.7188C11.4599 11.7188 11.25 11.9286 11.25 12.1875C11.25 12.4464 11.4599 12.6562 11.7188 12.6562Z" fill="#808080"/>
<path d="M11.7188 9.84375C11.9776 9.84375 12.1875 9.63388 12.1875 9.375C12.1875 9.11612 11.9776 8.90625 11.7188 8.90625C11.4599 8.90625 11.25 9.11612 11.25 9.375C11.25 9.63388 11.4599 9.84375 11.7188 9.84375Z" fill="#808080"/>
<path d="M11.7188 7.03125C11.9776 7.03125 12.1875 6.82138 12.1875 6.5625C12.1875 6.30362 11.9776 6.09375 11.7188 6.09375C11.4599 6.09375 11.25 6.30362 11.25 6.5625C11.25 6.82138 11.4599 7.03125 11.7188 7.03125Z" fill="#808080"/>
</g>
<defs>
<clipPath id="clip0_16_1513">
<rect width="15" height="15" fill="white"/>
</clipPath>
</defs>
</svg>
