<svg width="150" height="75" viewBox="0 0 30 15" fill="none" xmlns="http://www.w3.org/2000/svg">
<g clip-path="url(#clip0_16_1433)">
<path d="M5.6543 13.2451V12.1494H3.23145V13.2451V13.8223H5.6543V13.2451Z" fill="#fff"/>
<path d="M0.175781 11.0508V11.6016V12.1494V12.6973V13.2451V13.8223H2.5957V13.2451V12.6973V12.1494V11.6016V11.0508V9.95508H0.175781V11.0508Z" fill="#fff"/>
<path d="M2.5957 5.56641V4.46777H0.175781V5.56641V6.11426H2.5957V5.56641Z" fill="#fff"/>
<path d="M2.5957 8.85645V8.30859V7.76074V6.66211H0.175781V7.76074V8.30859V8.85645V9.40723H2.5957V8.85645Z" fill="#fff"/>
<path d="M5.6543 8.85645V8.30859V7.76074V6.66211H3.23145V7.76074V8.30859V8.85645V9.40723H5.6543V8.85645Z" fill="#fff"/>
<path d="M5.6543 11.0508V9.95508H3.23145V11.0508V11.6016H5.6543V11.0508Z" fill="#fff"/>
<path d="M5.6543 5.56641V5.01855V4.46777V3.37207H3.23145V4.46777V5.01855V5.56641V6.11426H5.6543V5.56641Z" fill="#fff"/>
<path d="M5.6543 2.27344V1.17773H3.23145V2.27344V2.82422H5.6543V2.27344Z" fill="#fff"/>
<path d="M8.70996 9.95508H6.29004V10.5029H8.70996V9.95508Z" fill="#fff"/>
<path d="M8.70996 13.2451V12.6973V12.1494V11.0508H6.29004V12.1494V12.6973V13.2451V13.8223H8.70996V13.2451Z" fill="#fff"/>
<path d="M11.7656 6.66211H9.3457V7.20996H11.7656V6.66211Z" fill="#fff"/>
<path d="M11.7686 13.2451V12.6973V12.1494V11.6016V11.0508V9.95508H9.3457V11.0508V11.6016V12.1494V12.6973V13.2451V13.8223H11.7686V13.2451Z" fill="#fff"/>
<path d="M11.7686 8.85645V7.76074H9.3457V8.85645V9.40723H11.7686V8.85645Z" fill="#fff"/>
<path d="M14.8242 6.66211V5.56641H12.4043V6.66211V7.21289H14.8242V6.66211Z" fill="#fff"/>
<path d="M14.8242 2.27344H12.4043V2.82129H14.8242V2.27344Z" fill="#fff"/>
<path d="M14.8242 4.46777V3.37207H12.4043V4.46777V5.01855H14.8242V4.46777Z" fill="#fff"/>
<path d="M14.8242 9.95508V9.40723V8.85645V7.76074H12.4043V8.85645V9.40723V9.95508V10.5029H14.8242V9.95508Z" fill="#fff"/>
<path d="M14.8242 13.2451V12.6973V12.1494V11.0508H12.4043V12.1494V12.6973V13.2451V13.8223H14.8242V13.2451Z" fill="#fff"/>
<path d="M21.0099 13.1844V12.0887H18.587V13.1844V13.7616H21.0099V13.1844Z" fill="#fff"/>
<path d="M15.5314 10.9901V11.5409V12.0887V12.6366V13.1844V13.7616H17.9513V13.1844V12.6366V12.0887V11.5409V10.9901V9.89441H15.5314V10.9901Z" fill="#fff"/>
<path d="M17.9513 5.50574V4.4071H15.5314V5.50574V6.05359H17.9513V5.50574Z" fill="#fff"/>
<path d="M17.9513 8.79578V8.24792V7.70007V6.60144H15.5314V7.70007V8.24792V8.79578V9.34656H17.9513V8.79578Z" fill="#fff"/>
<path d="M21.0099 8.79578V8.24792V7.70007V6.60144H18.587V7.70007V8.24792V8.79578V9.34656H21.0099V8.79578Z" fill="#fff"/>
<path d="M21.0099 10.9901V9.89441H18.587V10.9901V11.5409H21.0099V10.9901Z" fill="#fff"/>
<path d="M21.0099 5.50574V4.95789V4.4071V3.3114H18.587V4.4071V4.95789V5.50574V6.05359H21.0099V5.50574Z" fill="#fff"/>
<path d="M21.0099 2.21277V1.11707H18.587V2.21277V2.76355H21.0099V2.21277Z" fill="#fff"/>
<path d="M24.0656 9.89441H21.6456V10.4423H24.0656V9.89441Z" fill="#fff"/>
<path d="M24.0656 13.1844V12.6366V12.0887V10.9901H21.6456V12.0887V12.6366V13.1844V13.7616H24.0656V13.1844Z" fill="#fff"/>
<path d="M27.1212 6.60144H24.7013V7.14929H27.1212V6.60144Z" fill="#fff"/>
<path d="M27.1241 13.1844V12.6366V12.0887V11.5409V10.9901V9.89441H24.7013V10.9901V11.5409V12.0887V12.6366V13.1844V13.7616H27.1241V13.1844Z" fill="#fff"/>
<path d="M27.1241 8.79578V7.70007H24.7013V8.79578V9.34656H27.1241V8.79578Z" fill="#fff"/>
<path d="M30.1798 6.60144V5.50574H27.7599V6.60144V7.15222H30.1798V6.60144Z" fill="#fff"/>
<path d="M30.1798 2.21277H27.7599V2.76062H30.1798V2.21277Z" fill="#fff"/>
<path d="M30.1798 4.4071V3.3114H27.7599V4.4071V4.95789H30.1798V4.4071Z" fill="#fff"/>
<path d="M30.1798 9.89441V9.34656V8.79578V7.70007H27.7599V8.79578V9.34656V9.89441V10.4423H30.1798V9.89441Z" fill="#fff"/>
<path d="M30.1798 13.1844V12.6366V12.0887V10.9901H27.7599V12.0887V12.6366V13.1844V13.7616H30.1798V13.1844Z" fill="#fff"/>
</g>
<defs>
<clipPath id="clip0_16_1433">
<rect width="30" height="15" fill="white"/>
</clipPath>
</defs>
</svg>
