<svg width="15" height="15" viewBox="0 0 15 15" fill="none" xmlns="http://www.w3.org/2000/svg">
<g clip-path="url(#clip0_16_1511)">
<path d="M14.7859 0.075C14.7081 0.0248437 14.6195 0 14.5314 0C14.4409 0 14.35 0.0257813 14.2712 0.07875L0.208733 9.45375C0.0638897 9.54984 -0.0157978 9.71906 0.00295218 9.8925C0.0207647 10.0655 0.133265 10.215 0.294983 10.2788L3.96248 11.7464L5.68701 14.7642C5.76951 14.9091 5.9228 14.9986 6.08873 15.0005C6.09061 15.0005 6.09201 15.0005 6.09389 15.0005C6.25842 15.0005 6.41123 14.9133 6.49561 14.7727L7.4692 13.1494L12.0137 14.9667C12.0695 14.9892 12.1281 15 12.1876 15C12.2673 15 12.3461 14.9798 12.4173 14.9395C12.5411 14.8702 12.6259 14.7483 12.6498 14.6081L14.9936 0.545625C15.024 0.361406 14.9425 0.176719 14.7859 0.075ZM1.47014 9.73922L12.3334 2.49656L4.43498 10.9514C4.39326 10.9266 4.35623 10.8938 4.3103 10.8755L1.47014 9.73922ZM4.77623 11.2809C4.7753 11.2791 4.77389 11.2781 4.77295 11.2763L13.6525 1.77234L6.08264 13.567L4.77623 11.2809ZM11.8206 13.8792L7.81701 12.278C7.72186 12.2405 7.62295 12.2278 7.52498 12.2222L13.69 2.66531L11.8206 13.8792Z" fill="white"/>
</g>
<defs>
<clipPath id="clip0_16_1511">
<rect width="15" height="15" fill="white"/>
</clipPath>
</defs>
</svg>
