<svg width="15" height="17" viewBox="0 0 15 17" fill="none" xmlns="http://www.w3.org/2000/svg">
<path fill-rule="evenodd" clip-rule="evenodd" d="M15 4.51389H12.375C11.9062 3.79167 11.3438 3.15972 10.6875 2.70833L12.1875 1.26389L10.875 0L8.8125 1.98611C8.4375 1.89583 7.96875 1.80556 7.5 1.80556C7.03125 1.80556 6.5625 1.89583 6.1875 1.98611L4.125 0L2.8125 1.26389L4.3125 2.70833C3.65625 3.15972 3.09375 3.79167 2.625 4.51389H0V6.31944H1.96875C1.875 6.59028 1.875 6.95139 1.875 7.22222V8.125H0V9.93056H1.875V10.8333C1.875 11.1042 1.875 11.4653 1.96875 11.7361H0V13.5417H2.625C3.5625 15.1667 5.4375 16.25 7.5 16.25C9.5625 16.25 11.4375 15.1667 12.375 13.5417H15V11.7361H13.0312C13.125 11.4653 13.125 11.1042 13.125 10.8333V9.93056H15V8.125H13.125V7.22222C13.125 6.95139 13.125 6.59028 13.0312 6.31944H15V4.51389ZM9.375 11.7361H5.625V9.93056H9.375V11.7361ZM9.375 8.125H5.625V6.31944H9.375V8.125Z" fill="#fff"/>
</svg>
